# OBJ written from X:\DEE._work\__Vides_FORMAS\___web\vides_formas\public\obj\tetrahedron\tetrahedron.obj
# Units	meters

o tetrahedron
v 3.69564e-005 -0.5 0.708147
v 0.613286 -0.5 -0.354073
v 3.69564e-005 0.501475 5.68964e-005
v -0.613325 -0.5 -0.354073
vn 0.816515 0.333299 0.471397
vn 0 -1 0
vn -0.816465 0.33334 0.471455
vn 0 0.33338 -0.942793
vt -43.5029 -8.37198
vt 43.5038 -8.37198
vt -0.00218462 66.9781
vt -0.00262158 -50.2339
vt 43.5073 25.1169
vt -43.5047 25.1169
vt 0.00480614 66.9786
vt -43.5071 -8.37261
vt 43.5036 -8.37261
vt 43.5073 -8.37349
vt -0.00262158 66.9788
vt -43.5047 -8.37349
mtllib tetrahedron.mtl
usemtl Default
g Mesh1_032Component_3_032t_dwg1_032Model
f 1/1/1 2/2/1 3/3/1
f 1/4/2 4/5/2 2/6/2
f 3/7/3 4/8/3 1/9/3
f 4/10/4 3/11/4 2/12/4
