# OBJ written from X:\DEE._work\__Vides_FORMAS\___web\vides_formas\public\obj\octahedron\octahedron.obj
# Units	meters

o octahedron
v 1.62072e-014 -0.711635 9.13494e-014
v -0.503202 0 -0.503202
v 0.503202 0 -0.503202
v -0.503202 3.68345e-016 0.503202
v 0.503202 0 0.503202
v 2.1585e-013 0.711635 2.15113e-013
vn 0 -0.57735 -0.816497
vn -0.816497 -0.57735 0
vn -2.11311e-016 -0.57735 0.816497
vn 0.816497 -0.57735 0
vn 0.816497 0.57735 0
vn 0 0.57735 -0.816497
vn -0.816497 0.57735 -2.11311e-016
vn 0 0.57735 0.816497
vt -7.87751e-013 -28.2418
vt 24.4582 14.1209
vt -24.4582 14.1209
vt 4.44005e-012 -28.2418
vt 7.87751e-013 -28.2418
vt -4.44005e-012 -28.2418
vt 24.4582 -14.1209
vt -1.04556e-011 28.2418
vt -24.4582 -14.1209
vt -1.04914e-011 28.2418
vt 1.04556e-011 28.2418
vt 1.04914e-011 28.2418
mtllib octahedron.mtl
usemtl Default
g Mesh1_032Component_2_032o_dwg1_032Model
f 1/1/1 2/2/1 3/3/1
f 1/4/2 4/2/2 2/3/2
f 4/3/3 1/5/3 5/2/3
f 3/2/4 5/3/4 1/6/4
f 3/7/5 6/8/5 5/9/5
f 6/10/6 3/9/6 2/7/6
f 4/7/7 6/11/7 2/9/7
f 6/12/8 4/9/8 5/7/8
