# OBJ written from X:\DEE._work\__Vides_FORMAS\___web\vides_formas\public\obj\dodekahedron3.obj
# Units	meters

o Mesh
v -0.305808 -0.305785 -0.305808
v 2.11224e-006 -0.188979 -0.494808
v 2.11224e-006 0.189021 -0.494808
v -0.305808 0.305831 -0.305808
v -0.494808 2.10214e-005 -0.189002
v -0.188998 0.494831 -2.11224e-006
v -0.305808 0.305831 0.305808
v -0.494808 2.10214e-005 0.188998
v -0.188998 -0.494785 -2.11224e-006
v -0.305808 -0.305785 0.305808
v 2.11224e-006 0.189021 0.494808
v 2.11224e-006 -0.188979 0.494808
v 0.305808 -0.305785 0.305808
v 0.189002 -0.494785 -2.11224e-006
v 0.305808 -0.305785 -0.305808
v 0.494808 2.10214e-005 0.188998
v 0.494808 2.10214e-005 -0.189002
v 0.305808 0.305831 -0.305808
v 0.305808 0.305831 0.305808
v 0.189002 0.494831 -2.11224e-006
vn -0.525729 0 -0.850652
vn -0.850651 0.52573 4.93453e-006
vn -0.850649 -0.525735 1.50778e-006
vn -0.525736 0 0.850648
vn 0 -0.850652 0.525729
vn 0 -0.850649 -0.525734
vn 0.85065 -0.525732 7.51139e-006
vn 0.525732 -7.56635e-006 -0.85065
vn 0.850652 0.525729 0
vn 0 0.850648 0.525736
vn -1.3433e-006 0.850649 -0.525735
vn 0.525734 0 0.850649
mtllib dodekahedron3.mtl
usemtl a
g Default
f 2//1 1//1 5//1 4//1 3//1
f 4//2 5//2 8//2 7//2 6//2
f 1//3 9//3 10//3 8//3 5//3
f 8//4 10//4 12//4 11//4 7//4
f 14//5 13//5 12//5 10//5 9//5
f 14//6 9//6 1//6 2//6 15//6
f 13//7 14//7 15//7 17//7 16//7
f 15//8 2//8 3//8 18//8 17//8
f 16//9 17//9 18//9 20//9 19//9
f 11//10 19//10 20//10 6//10 7//10
f 18//11 3//11 4//11 6//11 20//11
f 12//12 13//12 16//12 19//12 11//12
